<?xml version="1.0" encoding="UTF-8" standalone="no"?>
<!DOCTYPE svg PUBLIC "-//W3C//DTD SVG 1.1//EN" "http://www.w3.org/Graphics/SVG/1.1/DTD/svg11.dtd">
<svg width="100%" height="100%" viewBox="0 0 1405 284" version="1.1" xmlns="http://www.w3.org/2000/svg" xmlns:xlink="http://www.w3.org/1999/xlink" xml:space="preserve" xmlns:serif="http://www.serif.com/" style="fill-rule:evenodd;clip-rule:evenodd;stroke-linejoin:round;stroke-miterlimit:2;">
    <g transform="matrix(1,0,0,1,-183.46865,-1211.076772)">
        <g transform="matrix(1,0,0,1,0,977)">
            <g transform="matrix(1,0,0,1.193684,-252.72526,-1007.951649)">
                <g transform="matrix(316.666667,0,0,316.666667,1854.52682,1278)">
                </g>
                <text x="593.56px" y="1278px" style="font-family:'Tanker-Regular', 'Tanker';font-size:316.667px;fill:rgb(255,175,0);">P<tspan x="731.943px 856.393px 985.593px 1099.91px " y="1278px 1278px 1278px 1278px ">eatD</tspan>rea<tspan x="1657.877px " y="1278px ">m</tspan></text>
            </g>
            <g transform="matrix(-0.001924,5.615875,-4.710896,-0.001614,1823.241902,-809.638532)">
                <path d="M206.943,333.268L206.943,337.671C206.943,344.613 204.106,348 198.29,348L194.601,348C188.927,348 185.948,344.613 185.948,337.671L185.948,333.268C185.948,326.495 188.927,322.939 194.601,322.939L198.29,322.939C204.106,322.939 206.943,326.495 206.943,333.268ZM199.055,334.922C199.055,333.239 198.349,332.355 196.904,332.355L195.987,332.355C194.577,332.355 193.836,333.239 193.836,334.922L193.836,336.016C193.836,337.742 194.577,338.584 195.987,338.584L196.904,338.584C198.349,338.584 199.055,337.742 199.055,336.016L199.055,334.922Z" style="fill:rgb(29,32,37);"/>
            </g>
            <g transform="matrix(0.002906,-5.615875,4.710895,0.002438,-1338.425397,1561.013883)">
                <path d="M206.943,333.268L206.943,337.671C206.943,344.613 204.106,348 198.29,348L194.601,348C188.927,348 185.948,344.613 185.948,337.671L185.948,333.268C185.948,326.495 188.927,322.939 194.601,322.939L198.29,322.939C204.106,322.939 206.943,326.495 206.943,333.268ZM199.055,334.922C199.055,333.239 198.349,332.355 196.904,332.355L195.987,332.355C194.577,332.355 193.836,333.239 193.836,334.922L193.836,336.016C193.836,337.742 194.577,338.584 195.987,338.584L196.904,338.584C198.349,338.584 199.055,337.742 199.055,336.016L199.055,334.922Z" style="fill:rgb(29,32,37);"/>
            </g>
        </g>
    </g>
</svg>
